<svg version="1.1" preserveAspectRatio="none" xmlns="http://www.w3.org/2000/svg" width="500" height="500" viewBox="0 0 500 500"><rect width="100%" height="100%" fill="#F9F9F9" fill-opacity="1"/><svg viewBox="46.3586 -33.6564 659.0768 288" width="333" height="145.51263221524408" x="83.5px" y="177.2437px" xmlns="http://www.w3.org/2000/svg" xmlns:xlink="http://www.w3.org/1999/xlink" preserveAspectRatio="none"><defs></defs><style>.companyName {fill:#F3A7DC;fill-opacity:1;}.icon1 {fill:#DBDBDB;fill-opacity:1;}.icon2 {fill:#F3A7DC;fill-opacity:1;}.icon3 {fill:#E7E7E7;fill-opacity:1;}.icon3-str {stroke:#E7E7E7;stroke-opacity:1;}.text {fill:#A0A0A0;fill-opacity:1;}</style><g opacity="1" transform="rotate(0 263.5707 234.3436)">
<svg width="224.6526" height="20" x="263.5707" y="234.3436" version="1.1" preserveAspectRatio="none" viewBox="4.16 -30.12 349.08 31.080000000000002">
  <g transform="matrix(1 0 0 1 0 0)" class="text"><path id="id-6izo4zJp11" d="M4.16-28.92L8.04-28.92L8.04-3.76L22.76-3.76L22.76 0L4.16 0L4.16-28.92Z M33.04-28.92L51.84-28.92L51.84-25.20L36.92-25.20L36.92-16.40L50.24-16.40L50.24-12.68L36.92-12.68L36.92-3.76L52.40-3.76L52.40 0L33.04 0L33.04-28.92Z M91.88-29.84L91.92-29.84L91.92 0L88.08 0L88.08-18.72L77.44-3.64L77.36-3.64L66.92-18.20L66.92 0L63.16 0L63.16-29.84L63.20-29.84L77.44-9.68L91.88-29.84Z M102.44-14.44Q102.44-18.40 104.44-21.80Q106.44-25.20 109.82-27.22Q113.20-29.24 117.20-29.24L117.20-29.24Q121.16-29.24 124.56-27.22Q127.96-25.20 129.98-21.80Q132-18.40 132-14.44L132-14.44Q132-10.44 130-7.04Q128-3.64 124.58-1.66Q121.16 0.32 117.20 0.32L117.20 0.32Q113.20 0.32 109.80-1.64Q106.40-3.60 104.42-6.98Q102.44-10.36 102.44-14.44L102.44-14.44ZM106.44-14.40Q106.44-11.44 107.88-8.92Q109.32-6.40 111.82-4.92Q114.32-3.44 117.28-3.44L117.28-3.44Q120.24-3.44 122.70-4.90Q125.16-6.36 126.58-8.90Q128-11.44 128-14.44L128-14.44Q128-17.44 126.56-20Q125.12-22.56 122.64-24.04Q120.16-25.52 117.20-25.52L117.20-25.52Q114.24-25.52 111.76-24.02Q109.28-22.52 107.86-19.96Q106.44-17.40 106.44-14.40L106.44-14.40Z M163.84-28.92L167.72-28.92L167.72 0.96L167.60 0.96L146.36-20.60L146.44 0L142.52 0L142.52-29.80L142.72-29.80L163.92-8L163.84-28.92Z M217.92-2.16Q216.52-1.24 214.38-0.46Q212.24 0.32 209.72 0.32L209.72 0.32Q205.28 0.32 201.90-1.64Q198.52-3.60 196.70-6.92Q194.88-10.24 194.88-14.24L194.88-14.24Q194.88-18.52 196.72-21.94Q198.56-25.36 201.82-27.30Q205.08-29.24 209.20-29.24L209.20-29.24Q211.64-29.24 213.76-28.60Q215.88-27.96 217.56-26.92L217.56-26.92L216.00-23.28Q212.68-25.52 209.32-25.52L209.32-25.52Q206.52-25.52 204.14-24.04Q201.76-22.56 200.34-20.02Q198.92-17.48 198.92-14.44L198.92-14.44Q198.92-11.32 200.22-8.80Q201.52-6.28 203.94-4.86Q206.36-3.44 209.52-3.44L209.52-3.44Q213.40-3.44 216.28-5.64L216.28-5.64L217.92-2.16Z M246.60 0L243.60-7.60L232.48-7.60L229.40 0L225.56 0L238.20-30.12L238.44-30.12L251.08 0L246.60 0ZM233.88-10.96L242.28-10.96L238.16-21.52L233.88-10.96Z M281.80-28.92L285.68-28.92L285.68 0.96L285.56 0.96L264.32-20.60L264.40 0L260.48 0L260.48-29.80L260.68-29.80L281.88-8L281.80-28.92Z M298.00 0L298.00-28.92L305.92-28.92Q311.32-28.92 314.86-26.78Q318.40-24.64 320.02-21.26Q321.64-17.88 321.64-14.12L321.64-14.12Q321.64-9.92 319.68-6.70Q317.72-3.48 314.44-1.74Q311.16 0 307.32 0L307.32 0L298.00 0ZM301.88-3.76L306.56-3.76Q309.76-3.76 312.28-5.02Q314.80-6.28 316.22-8.68Q317.64-11.08 317.64-14.40L317.64-14.40Q317.64-17.80 316.16-20.24Q314.68-22.68 312.22-23.94Q309.76-25.20 306.92-25.20L306.92-25.20L301.88-25.20L301.88-3.76Z M348.48-28.92L353.24-28.92L342.40-9.64L342.40 0L338.52 0L338.52-9.64L327.80-28.92L332.60-28.92L340.56-14.04L348.48-28.92Z"/></g>
</svg>
</g><g opacity="1" transform="rotate(0 46.3586 196.3436)">
<svg width="659.0768" height="24" x="46.3586" y="196.3436" version="1.1" preserveAspectRatio="none" viewBox="0.88 -28.48 795.28 28.96">
  <g transform="matrix(1 0 0 1 0 0)" class="companyName"><path id="id-D6z1nYkh27" d="M32.60 0.44L31.32 0.44L23-20.24L15.40 0.44L14.12 0.44L3.48-26.08Q3.28-26.60 3.06-26.78Q2.84-26.96 2.36-27.04L2.36-27.04L0.88-27.20L0.88-28L14-28L14-27.20L12.44-27.04Q11.88-26.96 11.88-26.40L11.88-26.40Q11.88-26.28 11.96-25.96L11.96-25.96L18.04-10.12L22.32-21.96L20.68-26.08Q20.48-26.60 20.26-26.78Q20.04-26.96 19.56-27.04L19.56-27.04L18.16-27.20L18.16-28L31.28-28L31.28-27.20L29.64-27.04Q29.08-26.96 29.08-26.40L29.08-26.40Q29.08-26.28 29.16-25.96L29.16-25.96L35.24-10.12L41.04-26.12Q41.16-26.44 41.16-26.56L41.16-26.56Q41.16-27 40.56-27.04L40.56-27.04L38.88-27.20L38.88-28L44.96-28L44.96-27.20L43.48-27.04Q43-27 42.80-26.80Q42.60-26.60 42.36-26.08L42.36-26.08L32.60 0.44Z M62.92-28.48Q69.68-28.48 73.72-25.06Q77.76-21.64 77.76-14L77.76-14Q77.76-6.36 73.72-2.94Q69.68 0.48 62.92 0.48L62.92 0.48Q56.16 0.48 52.12-2.94Q48.08-6.36 48.08-14L48.08-14Q48.08-21.60 52.14-25.04Q56.20-28.48 62.92-28.48L62.92-28.48ZM62.92-0.68Q65.36-0.68 66.66-2Q67.96-3.32 68.44-6.16Q68.92-9 68.92-14L68.92-14Q68.92-19 68.44-21.84Q67.96-24.68 66.66-26Q65.36-27.32 62.92-27.32L62.92-27.32Q60.48-27.32 59.18-26Q57.88-24.68 57.40-21.84Q56.92-19 56.92-14L56.92-14Q56.92-9 57.40-6.16Q57.88-3.32 59.18-2Q60.48-0.68 62.92-0.68L62.92-0.68Z M97.92-9.24Q97.60-11.20 97.18-11.98Q96.76-12.76 95.84-13.02Q94.92-13.28 92.80-13.28L92.80-13.28L91.64-13.28L91.64-2.04Q91.64-1.60 91.82-1.44Q92-1.28 92.60-1.16L92.60-1.16L94.32-0.80L94.32 0L81.04 0L81.04-0.80L82.52-1.12Q83.12-1.24 83.30-1.40Q83.48-1.56 83.48-2L83.48-2L83.48-26Q83.48-26.44 83.30-26.60Q83.12-26.76 82.52-26.88L82.52-26.88L81.04-27.20L81.04-28L92.80-28Q98.16-28 101.32-27.30Q104.48-26.60 105.92-25Q107.36-23.40 107.36-20.64L107.36-20.64Q107.36-17.56 105.52-15.90Q103.68-14.24 99.56-13.64L99.56-13.64Q101.92-13.48 103.34-12.88Q104.76-12.28 105.56-10.98Q106.36-9.68 106.80-7.40L106.80-7.40L107.24-5Q107.56-3.28 107.70-2.68Q107.84-2.08 108.10-1.76Q108.36-1.44 108.92-1.44L108.92-1.44Q109.92-1.44 110.60-2.92L110.60-2.92L111.44-2.20Q110.88-1.04 109.74-0.32Q108.60 0.40 106.04 0.40L106.04 0.40Q103.48 0.40 102-0.16Q100.52-0.72 99.68-2.14Q98.84-3.56 98.40-6.24L98.40-6.24L97.92-9.24ZM91.64-26.80L91.64-14.48L93.16-14.48Q95.48-14.48 96.74-15.12Q98-15.76 98.48-17.08Q98.96-18.40 98.96-20.64L98.96-20.64Q98.96-22.88 98.48-24.20Q98-25.52 96.74-26.16Q95.48-26.80 93.16-26.80L93.16-26.80L91.64-26.80Z M115.32-26Q115.32-26.44 115.14-26.60Q114.96-26.76 114.36-26.88L114.36-26.88L112.88-27.20L112.88-28L126.16-28L126.16-27.20L124.44-26.84Q123.84-26.72 123.66-26.56Q123.48-26.40 123.48-25.96L123.48-25.96L123.48-1.20L128.52-1.20Q130.88-1.20 132.20-1.92Q133.52-2.64 134.26-3.96Q135-5.28 135.92-7.96L135.92-7.96L137.04-7.96L137.04 0L112.88 0L112.88-0.80L114.36-1.12Q114.96-1.24 115.14-1.40Q115.32-1.56 115.32-2L115.32-2L115.32-26Z M139.60-0.80L141.08-1.12Q141.68-1.24 141.86-1.40Q142.04-1.56 142.04-2L142.04-2L142.04-26Q142.04-26.44 141.86-26.60Q141.68-26.76 141.08-26.88L141.08-26.88L139.60-27.20L139.60-28L151.84-28Q160.24-28 164.64-24.84Q169.04-21.68 169.04-14L169.04-14Q169.04-6.32 164.64-3.16Q160.24 0 151.84 0L151.84 0L139.60 0L139.60-0.80ZM150.20-26.80L150.20-1.20L151.84-1.20Q155.16-1.20 156.96-2.38Q158.76-3.56 159.48-6.28Q160.20-9 160.20-14L160.20-14Q160.20-19 159.48-21.72Q158.76-24.44 156.96-25.62Q155.16-26.80 151.84-26.80L151.84-26.80L150.20-26.80Z M195.48-0.60Q198.08-0.60 199.52-1.60Q200.96-2.60 200.96-4.48L200.96-4.48Q200.96-6 200.30-7Q199.64-8 198.28-8.84Q196.92-9.68 194.28-10.84L194.28-10.84Q190.92-12.32 189.08-13.46Q187.24-14.60 186.18-16.34Q185.12-18.08 185.12-20.76L185.12-20.76Q185.12-24.60 187.84-26.54Q190.56-28.48 196.48-28.48L196.48-28.48Q199.12-28.48 201.58-27.96Q204.04-27.44 205.72-26.64L205.72-26.64L204.76-20.52L203.68-20.52Q202.92-22.96 202.10-24.40Q201.28-25.84 199.88-26.62Q198.48-27.40 196.16-27.40L196.16-27.40Q190.88-27.40 190.88-23.96L190.88-23.96Q190.88-22.56 191.52-21.64Q192.16-20.72 193.44-19.98Q194.72-19.24 197.68-17.80L197.68-17.80L198.48-17.44Q202.20-15.64 203.98-14.52Q205.76-13.40 206.80-11.74Q207.84-10.08 207.84-7.44L207.84-7.44Q207.84-3.52 204.90-1.52Q201.96 0.48 195.68 0.48L195.68 0.48Q193.16 0.48 190.10-0.08Q187.04-0.64 185.36-1.44L185.36-1.44L186.44-8.48L187.48-8.48Q188-5.36 189.04-3.64Q190.08-1.92 191.64-1.26Q193.20-0.60 195.48-0.60L195.48-0.60Z M242.60 0.44L241.32 0.44L233-20.24L225.40 0.44L224.12 0.44L213.48-26.08Q213.28-26.60 213.06-26.78Q212.84-26.96 212.36-27.04L212.36-27.04L210.88-27.20L210.88-28L224-28L224-27.20L222.44-27.04Q221.88-26.96 221.88-26.40L221.88-26.40Q221.88-26.28 221.96-25.96L221.96-25.96L228.04-10.12L232.32-21.96L230.68-26.08Q230.48-26.60 230.26-26.78Q230.04-26.96 229.56-27.04L229.56-27.04L228.16-27.20L228.16-28L241.28-28L241.28-27.20L239.64-27.04Q239.08-26.96 239.08-26.40L239.08-26.40Q239.08-26.28 239.16-25.96L239.16-25.96L245.24-10.12L251.04-26.12Q251.16-26.44 251.16-26.56L251.16-26.56Q251.16-27 250.56-27.04L250.56-27.04L248.88-27.20L248.88-28L254.96-28L254.96-27.20L253.48-27.04Q253-27 252.80-26.80Q252.60-26.60 252.36-26.08L252.36-26.08L242.60 0.44Z M256.88-0.80L258.36-1.12Q258.96-1.24 259.14-1.40Q259.32-1.56 259.32-2L259.32-2L259.32-26Q259.32-26.44 259.14-26.60Q258.96-26.76 258.36-26.88L258.36-26.88L256.88-27.20L256.88-28L281.52-28L281.52-20.20L280.52-20.20Q279.68-22.80 278.94-24.12Q278.20-25.44 276.88-26.12Q275.56-26.80 273.16-26.80L273.16-26.80L267.48-26.80L267.48-14.92L277.80-14.92L277.80-13.72L267.48-13.72L267.48-1.20L273.56-1.20Q275.92-1.20 277.28-1.92Q278.64-2.64 279.42-4Q280.20-5.36 281.04-7.96L281.04-7.96L282.08-7.96L282.08 0L256.88 0L256.88-0.80Z M285.68-0.80L287.16-1.12Q287.76-1.24 287.94-1.40Q288.12-1.56 288.12-2L288.12-2L288.12-26Q288.12-26.44 287.94-26.60Q287.76-26.76 287.16-26.88L287.16-26.88L285.68-27.20L285.68-28L310.32-28L310.32-20.20L309.32-20.20Q308.48-22.80 307.74-24.12Q307-25.44 305.68-26.12Q304.36-26.80 301.96-26.80L301.96-26.80L296.28-26.80L296.28-14.92L306.60-14.92L306.60-13.72L296.28-13.72L296.28-1.20L302.36-1.20Q304.72-1.20 306.08-1.92Q307.44-2.64 308.22-4Q309-5.36 309.84-7.96L309.84-7.96L310.88-7.96L310.88 0L285.68 0L285.68-0.80Z M332-2Q332-1.56 332.18-1.40Q332.36-1.24 332.96-1.12L332.96-1.12L334.44-0.80L334.44 0L321.40 0L321.40-0.80L322.88-1.12Q323.48-1.24 323.66-1.40Q323.84-1.56 323.84-2L323.84-2L323.84-26.88L322.92-26.88Q320.48-26.88 319.14-26.08Q317.80-25.28 317.10-24Q316.40-22.72 315.36-19.92L315.36-19.92L314.48-19.92L314.48-28L341.36-28L341.36-19.92L340.48-19.92Q339.44-22.72 338.74-24Q338.04-25.28 336.70-26.08Q335.36-26.88 332.92-26.88L332.92-26.88L332-26.88L332-2Z M355-0.60Q357.60-0.60 359.04-1.60Q360.48-2.60 360.48-4.48L360.48-4.48Q360.48-6 359.82-7Q359.16-8 357.80-8.84Q356.44-9.68 353.80-10.84L353.80-10.84Q350.44-12.32 348.60-13.46Q346.76-14.60 345.70-16.34Q344.64-18.08 344.64-20.76L344.64-20.76Q344.64-24.60 347.36-26.54Q350.08-28.48 356-28.48L356-28.48Q358.64-28.48 361.10-27.96Q363.56-27.44 365.24-26.64L365.24-26.64L364.28-20.52L363.20-20.52Q362.44-22.96 361.62-24.40Q360.80-25.84 359.40-26.62Q358-27.40 355.68-27.40L355.68-27.40Q350.40-27.40 350.40-23.96L350.40-23.96Q350.40-22.56 351.04-21.64Q351.68-20.72 352.96-19.98Q354.24-19.24 357.20-17.80L357.20-17.80L358-17.44Q361.72-15.64 363.50-14.52Q365.28-13.40 366.32-11.74Q367.36-10.08 367.36-7.44L367.36-7.44Q367.36-3.52 364.42-1.52Q361.48 0.48 355.20 0.48L355.20 0.48Q352.68 0.48 349.62-0.08Q346.56-0.64 344.88-1.44L344.88-1.44L345.96-8.48L347-8.48Q347.52-5.36 348.56-3.64Q349.60-1.92 351.16-1.26Q352.72-0.60 355-0.60L355-0.60Z M401.36-1.52Q403.56-1.52 405.34-2.24Q407.12-2.96 408.72-4.24L408.72-4.24L409.52-3.36Q407.76-1.72 404.94-0.62Q402.12 0.48 398.72 0.48L398.72 0.48Q392 0.48 387.68-3.06Q383.36-6.60 383.36-14.40L383.36-14.40Q383.36-21.64 387.66-25.06Q391.96-28.48 398.92-28.48L398.92-28.48Q401.72-28.48 404.44-27.96Q407.16-27.44 408.72-26.68L408.72-26.68L408.16-19.80L407.04-19.80Q405.92-23.20 404.02-25.26Q402.12-27.32 398.96-27.32L398.96-27.32Q395.32-27.32 393.74-24.34Q392.16-21.36 392.16-15.44L392.16-15.44Q392.16-8.44 394.20-4.98Q396.24-1.52 401.36-1.52L401.36-1.52Z M428.36-28.48Q435.12-28.48 439.16-25.06Q443.20-21.64 443.20-14L443.20-14Q443.20-6.36 439.16-2.94Q435.12 0.48 428.36 0.48L428.36 0.48Q421.60 0.48 417.56-2.94Q413.52-6.36 413.52-14L413.52-14Q413.52-21.60 417.58-25.04Q421.64-28.48 428.36-28.48L428.36-28.48ZM428.36-0.68Q430.80-0.68 432.10-2Q433.40-3.32 433.88-6.16Q434.36-9 434.36-14L434.36-14Q434.36-19 433.88-21.84Q433.40-24.68 432.10-26Q430.80-27.32 428.36-27.32L428.36-27.32Q425.92-27.32 424.62-26Q423.32-24.68 422.84-21.84Q422.36-19 422.36-14L422.36-14Q422.36-9 422.84-6.16Q423.32-3.32 424.62-2Q425.92-0.68 428.36-0.68L428.36-0.68Z M450.20-23.56L450.20-1.96Q450.20-1.52 450.38-1.38Q450.56-1.24 451.12-1.12L451.12-1.12L452.56-0.80L452.56 0L446.48 0L446.48-0.80L447.96-1.12Q448.56-1.24 448.74-1.40Q448.92-1.56 448.92-2L448.92-2L448.92-26Q448.92-26.44 448.74-26.60Q448.56-26.76 447.96-26.88L447.96-26.88L446.48-27.20L446.48-28L456.72-28L464.96-10.20L472.32-28L482.88-28L482.88-27.20L481.40-26.88Q480.80-26.76 480.62-26.60Q480.44-26.44 480.44-26L480.44-26L480.44-2Q480.44-1.56 480.62-1.40Q480.80-1.24 481.40-1.12L481.40-1.12L482.88-0.80L482.88 0L469.92 0L469.92-0.80L471.36-1.12Q471.92-1.24 472.10-1.38Q472.28-1.52 472.28-1.96L472.28-1.96L472.28-24.60L462.12 0L460.92 0L450.20-23.56Z M511.60-19.56Q511.60-16.32 510.06-14.50Q508.52-12.68 505.28-11.90Q502.04-11.12 496.60-11.12L496.60-11.12L495.56-11.12L495.56-2.04Q495.56-1.60 495.74-1.44Q495.92-1.28 496.52-1.16L496.52-1.16L498.24-0.80L498.24 0L484.96 0L484.96-0.80L486.44-1.12Q487.04-1.24 487.22-1.40Q487.40-1.56 487.40-2L487.40-2L487.40-26Q487.40-26.44 487.22-26.60Q487.04-26.76 486.44-26.88L486.44-26.88L484.96-27.20L484.96-28L496.60-28Q502.04-28 505.28-27.22Q508.52-26.44 510.06-24.62Q511.60-22.80 511.60-19.56L511.60-19.56ZM495.56-26.80L495.56-12.32L496.96-12.32Q499.32-12.32 500.66-13.04Q502.00-13.76 502.60-15.32Q503.20-16.88 503.20-19.56L503.20-19.56Q503.20-22.24 502.60-23.80Q502.00-25.36 500.66-26.08Q499.32-26.80 496.96-26.80L496.96-26.80L495.56-26.80Z M530.32 0L530.32-0.80L532.04-0.96Q532.60-1.04 532.60-1.40L532.60-1.40Q532.60-1.60 532.48-1.88L532.48-1.88L529.84-7.72L520.56-7.72L518.16-1.88Q518.04-1.60 518.04-1.40L518.04-1.40Q518.04-1.04 518.60-0.96L518.60-0.96L520.32-0.80L520.32 0L514.24 0L514.24-0.80L515.72-0.96Q516.20-1 516.40-1.20Q516.60-1.40 516.84-1.92L516.84-1.92L527.92-28.44L529.20-28.44L540.92-1.92Q541.16-1.40 541.36-1.20Q541.56-1 542.04-0.96L542.04-0.96L543.52-0.80L543.52 0L530.32 0ZM521.04-8.92L529.32-8.92L525.00-18.48L521.04-8.92Z M547.72-26Q547.72-26.44 547.54-26.60Q547.36-26.76 546.76-26.88L546.76-26.88L545.28-27.20L545.28-28L556.36-28L569.24-11.76L569.24-26.04Q569.24-26.48 569.06-26.62Q568.88-26.76 568.32-26.88L568.32-26.88L566.88-27.20L566.88-28L572.96-28L572.96-27.20L571.48-26.88Q570.88-26.76 570.70-26.60Q570.52-26.44 570.52-26L570.52-26L570.52 0L569.08 0L549.00-25.40L549.00-1.96Q549.00-1.52 549.18-1.38Q549.36-1.24 549.92-1.12L549.92-1.12L551.36-0.80L551.36 0L545.28 0L545.28-0.80L546.76-1.12Q547.36-1.24 547.54-1.40Q547.72-1.56 547.72-2L547.72-2L547.72-26Z M598.68-26.12Q598.76-26.36 598.76-26.40L598.76-26.40Q598.76-26.68 598.52-26.86Q598.28-27.04 597.96-27.08L597.96-27.08L596.08-27.24L596.08-28L602.72-28L602.72-27.20L601.48-27.08Q600.84-27.04 600.60-26.82Q600.36-26.60 600.04-26.08L600.04-26.08L592.40-12.96L592.40-2Q592.40-1.56 592.58-1.40Q592.76-1.24 593.36-1.12L593.36-1.12L594.84-0.80L594.84 0L581.80 0L581.80-0.80L583.28-1.12Q583.88-1.24 584.06-1.40Q584.24-1.56 584.24-2L584.24-2L584.24-12.72L576.88-26.08Q576.60-26.56 576.36-26.78Q576.12-27 575.72-27.04L575.72-27.04L574.16-27.20L574.16-28L587.16-28L587.16-27.20L585.56-27.04Q585.00-27 585.00-26.56L585.00-26.56Q585.00-26.32 585.16-26.04L585.16-26.04L591.56-13.96L598.68-26.12Z M619.16-23.56L619.16-1.96Q619.16-1.52 619.34-1.38Q619.52-1.24 620.08-1.12L620.08-1.12L621.52-0.80L621.52 0L615.44 0L615.44-0.80L616.92-1.12Q617.52-1.24 617.70-1.40Q617.88-1.56 617.88-2L617.88-2L617.88-26Q617.88-26.44 617.70-26.60Q617.52-26.76 616.92-26.88L616.92-26.88L615.44-27.20L615.44-28L625.68-28L633.92-10.20L641.28-28L651.84-28L651.84-27.20L650.36-26.88Q649.76-26.76 649.58-26.60Q649.40-26.44 649.40-26L649.40-26L649.40-2Q649.40-1.56 649.58-1.40Q649.76-1.24 650.36-1.12L650.36-1.12L651.84-0.80L651.84 0L638.88 0L638.88-0.80L640.32-1.12Q640.88-1.24 641.06-1.38Q641.24-1.52 641.24-1.96L641.24-1.96L641.24-24.60L631.08 0L629.88 0L619.16-23.56Z M653.92-0.80L655.40-1.12Q656.00-1.24 656.18-1.40Q656.36-1.56 656.36-2L656.36-2L656.36-26Q656.36-26.44 656.18-26.60Q656.00-26.76 655.40-26.88L655.40-26.88L653.92-27.20L653.92-28L678.56-28L678.56-20.20L677.56-20.20Q676.72-22.80 675.98-24.12Q675.24-25.44 673.92-26.12Q672.60-26.80 670.20-26.80L670.20-26.80L664.52-26.80L664.52-14.92L674.84-14.92L674.84-13.72L664.52-13.72L664.52-1.20L670.60-1.20Q672.96-1.20 674.32-1.92Q675.68-2.64 676.46-4Q677.24-5.36 678.08-7.96L678.08-7.96L679.12-7.96L679.12 0L653.92 0L653.92-0.80Z M692.72-15.44Q692.72-10.32 693.64-7.22Q694.56-4.12 696.66-2.68Q698.76-1.24 702.32-1.24L702.32-1.24L703.60-1.24L703.60-11.08L699.64-11.08L699.64-12.28L710.56-12.28L710.56-1.76Q709.68-1.60 708.46-1.30Q707.24-1 706.60-0.84L706.60-0.84Q703.96-0.16 702.38 0.16Q700.80 0.48 699.44 0.48L699.44 0.48Q695.16 0.48 691.68-0.98Q688.20-2.44 686.06-5.76Q683.92-9.08 683.92-14.40L683.92-14.40Q683.92-21.64 688.28-25.06Q692.64-28.48 699.76-28.48L699.76-28.48Q702.72-28.48 705.50-27.96Q708.28-27.44 709.84-26.68L709.84-26.68L709.28-19.80L708.16-19.80Q707.04-23.20 705.10-25.26Q703.16-27.32 699.80-27.32L699.80-27.32Q696.00-27.32 694.36-24.34Q692.72-21.36 692.72-15.44L692.72-15.44Z M740.28-10.40Q740.20-5.36 737.56-2.44Q734.92 0.48 729.04 0.48L729.04 0.48Q722.64 0.48 719.58-2.12Q716.52-4.72 716.52-10.56L716.52-10.56L716.52-26Q716.52-26.44 716.34-26.60Q716.16-26.76 715.56-26.88L715.56-26.88L714.08-27.20L714.08-28L727.04-28L727.04-27.20L725.60-26.88Q725.04-26.76 724.86-26.62Q724.68-26.48 724.68-26.04L724.68-26.04L724.68-9.84Q724.68-6.44 725.16-4.56Q725.64-2.68 727.02-1.78Q728.40-0.88 731.08-0.88L731.08-0.88Q734.92-0.88 736.96-3.40Q739.00-5.92 739.00-10.08L739.00-10.08L739.00-26Q739.00-26.44 738.82-26.60Q738.64-26.76 738.04-26.88L738.04-26.88L736.56-27.20L736.56-28L742.64-28L742.64-27.20L741.20-26.88Q740.64-26.76 740.46-26.62Q740.28-26.48 740.28-26.04L740.28-26.04L740.28-10.40Z M748.20-23.56L748.20-1.96Q748.20-1.52 748.38-1.38Q748.56-1.24 749.12-1.12L749.12-1.12L750.56-0.80L750.56 0L744.48 0L744.48-0.80L745.96-1.12Q746.56-1.24 746.74-1.40Q746.92-1.56 746.92-2L746.92-2L746.92-26Q746.92-26.44 746.74-26.60Q746.56-26.76 745.96-26.88L745.96-26.88L744.48-27.20L744.48-28L754.72-28L762.96-10.20L770.32-28L780.88-28L780.88-27.20L779.40-26.88Q778.80-26.76 778.62-26.60Q778.44-26.44 778.44-26L778.44-26L778.44-2Q778.44-1.56 778.62-1.40Q778.80-1.24 779.40-1.12L779.40-1.12L780.88-0.80L780.88 0L767.92 0L767.92-0.80L769.36-1.12Q769.92-1.24 770.10-1.38Q770.28-1.52 770.28-1.96L770.28-1.96L770.28-24.60L760.12 0L758.92 0L748.20-23.56Z M785.56-26Q785.56-26.44 785.38-26.60Q785.20-26.76 784.60-26.88L784.60-26.88L783.12-27.20L783.12-28L796.16-28L796.16-27.20L794.68-26.88Q794.08-26.76 793.90-26.60Q793.72-26.44 793.72-26L793.72-26L793.72-2Q793.72-1.56 793.90-1.40Q794.08-1.24 794.68-1.12L794.68-1.12L796.16-0.80L796.16 0L783.12 0L783.12-0.80L784.60-1.12Q785.20-1.24 785.38-1.40Q785.56-1.56 785.56-2L785.56-2L785.56-26Z"/></g>
</svg>
</g><g opacity="1" transform="rotate(0 276.0407 -33.6564)">
<svg width="199.7127" height="200" x="276.0407" y="-33.6564" version="1.1" preserveAspectRatio="none" viewBox="20.200002670288086 19.970077514648438 159.8000030517578 160.02992248535156">
  <g transform="matrix(1 0 0 1 0 0)"><g><path d="M81.6 164.8l21.3-21.3-1.4-1.8-19.9 23.1z" data-color="1" class="icon1"></path><path d="M105 137.6l1.6 2.1 1.4-1.4-1.7-2.3-1.3 1.6z" data-color="1" class="icon1"></path><path d="M102.5 140.5l1.4 1.9 1.6-1.6-1.6-2-1.4 1.7z" data-color="1" class="icon1"></path><path d="M122.3 117.5h6.5l1.9-1.9h-6.8l-1.6 1.9z" data-color="1" class="icon1"></path><path d="M172.5 36.6l-49.1 50c0 .8-.1 1.6-.1 2.4 0 .2-.1.4-.1.7.3 3.6-.3 7.6-1.6 11.8h14.7l-7.6 8.8h7.5l15.6-15.6h-22.2c0-.1 42.9-58.1 42.9-58.1z" data-color="1" class="icon1"></path><path d="M125.2 114.2h7l2.5-2.5h-7.3c-.1 0-2.2 2.5-2.2 2.5z" data-color="1" class="icon1"></path><path d="M107.3 134.9l1.8 2.4 18.2-18.3H121l-13.7 15.9z" data-color="1" class="icon1"></path><path d="M59.6 138.4c9.9 2.2 20.1.7 27.9-4.3 1.1-1.3 2.1-2.6 3.1-4-2.5.5-5 .8-7.6.8-4.8 0-9.6-.9-14.2-2.7-1.4.4-2.8.7-4.2.9-1.9.3-3.9.4-5.8.4-7.6 0-15-2.3-21.2-6.4-.4.1-.8.1-1.2.2 5.2 7.4 13.7 12.9 23.2 15.1z" data-color="1" class="icon1"></path><path d="M55.2 138.7l-1.2 8.1c1.7.2 3.5.4 5.2.4H61l.4-6.9c-.7-.1-1.3-.2-2-.4-1.5-.4-2.9-.8-4.2-1.2z" data-color="1" class="icon1"></path><path d="M84.1 137.6c-4.1 1.9-8.7 2.9-13.4 3.2l.3 4.4c4.9-1.6 9.3-4.2 13.1-7.6z" data-color="1" class="icon1"></path><path d="M44.8 144.3c2.5 1 5 1.8 7.6 2.2l1.2-8.4c-1.9-.7-3.7-1.5-5.4-2.5l-3.4 8.7z" data-color="1" class="icon1"></path><path d="M68.5 140.9c-1.9 0-3.8-.1-5.7-.4l-.3 6.6c2.4-.2 4.8-.7 7.2-1.3l-.4-4.8 1.1-.1c-.7-.1-1.3 0-1.9 0z" data-color="1" class="icon1"></path><path d="M43.3 132.5l-7.6 6.4c.5.4.9.8 1.4 1.1 2 1.5 4.1 2.7 6.3 3.7L47 135c-1.2-.8-2.5-1.6-3.7-2.5z" data-color="1" class="icon1"></path><path d="M34.7 123.4c-3.5.3-7.1.1-10.5-.6.8 2.3 1.9 4.4 3.2 6.5l10.8-1.5c-1.3-1.4-2.5-2.8-3.5-4.4z" data-color="1" class="icon1"></path><path d="M39.4 129.1l-11.2 1.5c1.8 2.7 3.9 5.1 6.4 7.2l7.5-6.3c-.9-.7-1.8-1.5-2.7-2.4z" data-color="1" class="icon1"></path><path d="M92.1 123.1c-1.1.2-2.2.4-3.3.5-1.4.2-2.8.2-4.2.2-1 0-2-.1-3.1-.1-.5 0-1 0-1.5-.1-.6.3-1.3.7-1.9 1-2.2 1.1-4.5 2-6.9 2.7 7.9 2.6 16.3 2.5 24-.1l-3.1-4.1z" data-color="1" class="icon1"></path><path d="M110.9 116.9c2.8-3.1 7.1-9.4 9.3-16.5-4.8 11.1-14.6 19.5-26.5 22.4l3 4c5.5-2.2 10.3-5.5 14.2-9.9z" data-color="1" class="icon1"></path><path d="M75.9 69.7l6.5 2.6c0-.1-.1-.3-.1-.4-.1-.9-.2-1.7-.2-2.6l-6.2.4z" data-color="1" class="icon1"></path><path d="M82.5 65.1v-.7l-6.8 3.8 6.5-.4c0-1 .1-1.8.3-2.7z" data-color="1" class="icon1"></path><path d="M100 53.9c-5-.2-9.8 1.7-12.8 5.1-.4.5-.9 1-1.2 1.6 2.4-1.3 4.9-2.2 7.6-2.7 9.8-1.9 18.2 2.5 24 7.3-.9-1.7-1.9-3.3-3.2-4.8-3.7-4.1-8.5-6.3-14.4-6.5z" data-color="1" class="icon1"></path><path d="M86.4 85.8l-.2-.1.2.1z" data-color="1" class="icon1"></path><path d="M82.5 122.3c2.1.1 4.1.1 6.2-.1 10.8-1.2 20.3-7 26.4-15.5-8.5-.5-15.2-7.3-15.6-15.8-1.1-.2-2.3-.4-3.4-.7-3.9-1.1-6.9-2.7-8.8-3.8 3.5 2.5 6.1 6.5 7.1 11.1 1.3 6.2.3 11.8-3.1 16.7-2.1 3-5.1 5.7-8.8 8.1z" data-color="1" class="icon1"></path><path d="M121.8 87.2c-6.2 3.1-11.9 4.2-16.7 4.2-1.4 0-2.8-.1-4.2-.3.5 7.9 7 14.1 15 14.1v.1c3.2-5 5.2-10.6 5.8-16.5.1-.5.1-1 .1-1.6z" data-color="1" class="icon1"></path><path d="M93.8 59.3c-4.2.8-7.5 2.6-9.2 3.7-1 2.5-1.2 5.4-.8 8.6.3 1.9.7 4.1 1.2 6.3s.9 4.4 1.1 5.9c.7.5 4.5 3.3 10.3 4.9 5.8 1.6 15 2.3 25.4-3.2 0-4.7-.6-11.1-2.9-17-8-7.7-16.5-10.8-25.1-9.2z" data-color="1" class="icon1"></path><path d="M30.9 88.5c-3.1-1.7-5.9-3.8-8.5-6.3-.5 2.4-.8 4.8-.9 7.2l9.9 4.7c-.3-1.8-.5-3.7-.5-5.6z" data-color="1" class="icon1"></path><path d="M31.8 95.9L21.6 91c0 3.2.5 6.4 1.4 9.5l9.8-1.2c-.5-1-.8-2.2-1-3.4z" data-color="1" class="icon1"></path><path d="M69.3 126.4c2.8-.8 5.5-1.8 8.1-3-5.7-1.1-11.1-4.4-15.5-9.6-4.9-5.9-7.8-13.3-8-20.6-7.4.8-14.8-.5-21.5-3.8.3 9.1 4.3 18.3 11.2 25.4 7.1 7.3 16.4 11.5 25.7 11.6z" data-color="1" class="icon1"></path><path d="M92.1 109.6c1.5-3.6 1.8-7.6.8-11.8-1.1-4.9-4.1-9.1-8.1-11.2-3.9-2-8.4-2-13.1-.1-.5.2-1 .4-1.5.7 0 12.2 9.7 22.1 21.9 22.4z" data-color="1" class="icon1"></path><path d="M79.7 122.2c4-2.2 7.8-5.1 10.4-8.9.5-.7.9-1.5 1.3-2.3-12.4-.6-22.3-10.7-22.7-23.2-.9.4-1.9.9-2.8 1.4-2.6 1.3-5.1 2.5-6.6 2.9-1.3.3-2.6.6-3.9.8.2 7 2.9 14.2 7.7 19.8 4.6 5.7 10.5 8.9 16.6 9.5z" data-color="1" class="icon1"></path><path d="M28 111.6c1.5 2.2 3.2 4.2 5.2 6.1l5.6-6.3c-1.2-1.6-2.2-3.3-3.2-5l-7.6 5.2z" data-color="1" class="icon1"></path><path d="M34.9 105c-.7-1.3-1.2-2.7-1.7-4.1l-9.8 1.2c.2.6.4 1.1.6 1.7.9 2.3 2 4.5 3.3 6.6-.1-.1 7.6-5.4 7.6-5.4z" data-color="1" class="icon1"></path><path d="M58.8 128c1.9 0 3.7-.1 5.6-.4h.1c-4.5-.7-8.9-2.3-13-4.7l-2.1 3.9c3.1.7 6.2 1.2 9.4 1.2z" data-color="1" class="icon1"></path><path d="M44 117.2c-.5-.5-1-.9-1.5-1.4-1-1-1.9-2.1-2.8-3.3l-5.4 6.1c1.8 1.5 3.7 2.9 5.7 4.1-.1.1 4-5.5 4-5.5z" data-color="1" class="icon1"></path><path d="M41.2 123.5c2.1 1.2 4.4 2.1 6.7 2.8l2.3-4.2.8.4c-2.1-1.3-4.1-2.7-5.9-4.3l-3.9 5.3z" data-color="1" class="icon1"></path><path d="M103.5 36.4l-2.9-9.7-3.2 9.7c.9 0 1.7-.1 2.6-.1 1.2 0 2.4 0 3.5.1z" data-color="1" class="icon1"></path><path d="M114.2 38.4l-3.1-5.6-2.5 4.2c2.2.3 4.1.8 5.6 1.4z" data-color="1" class="icon1"></path><path d="M90 32.9L87 38c1.5-.5 3.2-.9 5.2-1.1l-2.2-4z" data-color="1" class="icon1"></path><path d="M115.4 44.5c-1.3-.7-3.1-1.2-5.2-1.7-2.6-.4-6-.7-10.2-.7-4.2 0-7.7.3-10.2.7-2.1.4-3.9 1-5.2 1.7 1 .8 6.4 2.1 15.4 2.1s14.4-1.3 15.4-2.1z" data-color="1" class="icon1"></path><path d="M84.2 43c3.6-1.7 9.4-2.7 15.9-2.7s12.3 1 15.9 2.7c.7-.5.9-.9.9-1.1 0-.5-1.2-1.6-4.3-2.6-3.3-1-7.7-1.6-12.5-1.6s-9.2.6-12.5 1.6c-3.1 1-4.3 2.1-4.3 2.6-.1.2.2.6.9 1.1z" data-color="1" class="icon1"></path><path d="M107.4 30.7c.8 0 1.4-.7 1.3-1.4 0-.7-.6-1.3-1.3-1.3-.8 0-1.4.7-1.3 1.4 0 .7.6 1.3 1.3 1.3z" data-color="1" class="icon1"></path><path d="M100.7 24.3c.8 0 1.4-.7 1.3-1.4 0-.7-.6-1.3-1.3-1.3-.8 0-1.4.7-1.3 1.4 0 .6.5 1.2 1.3 1.3z" data-color="1" class="icon1"></path><path d="M94.1 30.7c.8 0 1.4-.7 1.3-1.4 0-.7-.6-1.3-1.3-1.3-.8 0-1.4.7-1.3 1.4 0 .7.6 1.3 1.3 1.3z" data-color="1" class="icon1"></path><path d="M132.5 93.1L180 29l-1.1-1-55.5 56.4c0-3.2-.4-6.5-1-9.6-1.3-6.3-3.7-11.6-6.9-15.4-3.9-4.5-9.1-6.9-15.4-7.1-5.5-.2-10.7 1.9-14 5.6-1.1 1.2-2 2.6-2.6 4.1-.3.2-.6.4-.8.6l-11.9 6.6 1.5.6v.1h.2l10.2 4c.3 1.4.6 2.8.9 4.3.6 2.8 1.1 5.3 1.2 6.7-4.1-1.9-8.8-1.8-13.6.2-1.8.8-3.9 1.8-5.9 2.8-2.6 1.3-5 2.5-6.3 2.8C45.9 94 32 90 22.7 80.2l-.9-1-.3 1.3c-.8 3.1-1.3 6.4-1.3 9.6v.1c0 4.7.8 9.5 2.5 13.9 2.7 7.2 7.4 13.2 13.3 17.6-4.2.5-8.5.2-12.6-.7l-1.3-.3.4 1.3c1 3.1 2.4 6 4.2 8.7v.1h.1c2.6 4 5.9 7.5 9.7 10.3 6.8 5 14.9 7.5 22.9 7.5 9.3 0 18.6-3.3 25.9-9.9 1.2-1.1 2.4-2.3 3.5-3.6h.1c1.5-1.7 2.9-3.6 4.2-5.5 1.2-.3 2.3-.7 3.4-1.1l6.9 9-1.5 1.7-1.8-2.5-1.2.9 2 2.7L67.4 179l1.1 1 35.3-35.3 1.7 2.3 1.2-.9-1.8-2.4 1.6-1.6 3.5 4.5 1.2-.9-3.6-4.7 1.4-1.4 1.7 2.3 1.2-.9-1.8-2.4 19.4-19.4h3.9v-1.5H131l1.9-1.9h7.4v-1.5h-5.9l2.5-2.5h4.6v-1.5h-3.1l17.1-17.1-23-.1zm-30 47.4l1.5-1.7 1.6 2-1.6 1.6-1.5-1.9zm.4 3l-21.3 21.3 19.9-23.1 1.4 1.8zm2.1-5.9l1.3-1.5 1.7 2.3-1.4 1.4-1.6-2.2zm-33.7-10.2c2.3-.7 4.6-1.6 6.9-2.7.7-.3 1.3-.6 1.9-1 .5 0 1 .1 1.5.1 1 .1 2 .1 3.1.1 1.4 0 2.8-.1 4.2-.2 1.1-.1 2.2-.3 3.3-.5l3.2 4.1c-7.8 2.6-16.3 2.7-24.1.1zm16.2 6.6c-7.8 5-18 6.6-27.9 4.3-9.6-2.2-18-7.7-23.3-15.1.4 0 .8-.1 1.2-.2 6.2 4.1 13.6 6.4 21.2 6.4 1.9 0 3.9-.1 5.8-.4 1.4-.2 2.8-.5 4.2-.9 4.5 1.8 9.3 2.7 14.2 2.7 2.6 0 5.1-.3 7.6-.8-.8 1.4-1.9 2.8-3 4zm-63.3-11.2c3.5.7 7 .9 10.5.6 1 1.6 2.2 3 3.5 4.4l-10.8 1.5c-1.3-2.1-2.4-4.2-3.2-6.5zm15.2 6.3c.9.8 1.8 1.7 2.7 2.4l-7.5 6.3c-2.4-2.1-4.6-4.5-6.4-7.2l11.2-1.5zm3.9 3.4c1.2.9 2.4 1.7 3.7 2.5l-3.6 8.7c-2.2-1-4.3-2.2-6.3-3.7-.5-.4-.9-.7-1.4-1.1l7.6-6.4zm1.5 11.8l3.5-8.6c1.7.9 3.5 1.8 5.4 2.5l-1.2 8.4c-2.6-.5-5.2-1.3-7.7-2.3zm9.2 2.5l1.2-8.1c1.4.5 2.7.9 4.2 1.2.7.2 1.3.3 2 .4l-.4 6.9h-1.8c-1.8-.1-3.5-.2-5.2-.4zm14.5-5.9c.6 0 1.2 0 1.8-.1l-1.1.1.4 4.8c-2.3.7-4.7 1.1-7.2 1.3l.3-6.6c2 .3 3.9.5 5.8.5zm2.6 4.3l-.3-4.4c4.7-.3 9.3-1.3 13.4-3.2-3.9 3.4-8.3 6-13.1 7.6zm46.4-80c-5.9-4.8-14.2-9.2-24-7.3-2.6.5-5.2 1.4-7.6 2.7.4-.6.8-1.1 1.2-1.6 3-3.3 7.8-5.2 12.8-5.1 5.9.2 10.7 2.4 14.3 6.6 1.4 1.4 2.4 3 3.3 4.7zm-23.7-5.9c8.6-1.6 17.1 1.5 25.2 9.2 2.3 5.9 2.9 12.4 2.9 17-10.5 5.6-19.6 4.8-25.4 3.2-5.9-1.6-9.7-4.4-10.3-4.9-.2-1.6-.6-3.7-1.1-5.9-.5-2.2-.9-4.4-1.2-6.3-.5-3.2-.2-6 .8-8.6 1.7-1.1 4.9-2.9 9.1-3.7zM51 122.5l-.8-.4-2.3 4.2c-2.3-.7-4.6-1.7-6.7-2.8l3.9-5.3c1.8 1.6 3.8 3.1 5.9 4.3zm13.5 5c-1.9.3-3.8.4-5.7.4-3.2 0-6.4-.4-9.4-1.2l2.1-3.9c4.1 2.4 8.5 4 13 4.7zm51.4-22.2c-8-.1-14.5-6.3-15-14.2 1.3.2 2.7.3 4.2.3 4.9 0 10.6-1.1 16.7-4.2 0 .5-.1 1.1-.1 1.6-.5 5.9-2.5 11.6-5.8 16.5zm-21.6-7.8c-1-4.6-3.6-8.6-7.1-11.1 1.9 1.1 4.9 2.7 8.8 3.8 1.1.3 2.3.6 3.4.7.4 8.5 7.1 15.3 15.6 15.8-6 8.5-15.5 14.3-26.4 15.5-2.1.2-4.2.3-6.2.1 3.7-2.4 6.8-5.1 8.8-8.1 3.5-5 4.5-10.6 3.1-16.7zM82.5 64.4v.7c-.2.9-.3 1.8-.3 2.7l-6.5.4 6.8-3.8zm-.3 4.8c0 .8.1 1.7.2 2.6 0 .1 0 .3.1.4L76 69.6l6.2-.4zm4.2 16.6c-.1 0-.1-.1-.2-.1l.2.1zm-1.6.8c4 2.1 7 6.3 8.1 11.2.9 4.2.6 8.2-.8 11.8-12.1-.3-21.9-10.2-21.9-22.4.5-.2 1-.5 1.5-.7 4.7-1.9 9.3-1.9 13.1.1zm-18.9 2.7c.9-.5 1.9-.9 2.8-1.4.3 12.5 10.3 22.6 22.7 23.2-.4.8-.8 1.5-1.3 2.3-2.6 3.8-6.4 6.7-10.4 8.9-6.1-.5-12-3.8-16.7-9.4-4.8-5.7-7.5-12.9-7.7-19.8 1.3-.2 2.6-.4 3.9-.8 1.6-.5 4-1.7 6.7-3zm-12 3.8c.2 7.2 3.1 14.7 8 20.6 4.4 5.2 9.8 8.6 15.5 9.6-2.6 1.2-5.3 2.3-8.1 3-9.3-.1-18.6-4.3-25.7-11.7-6.8-7.1-10.9-16.3-11.2-25.4 6.7 3.4 14.1 4.7 21.5 3.9zm-23-4.6c0 1.9.2 3.7.5 5.6l-9.9-4.7c.1-2.4.4-4.8.9-7.2 2.6 2.5 5.4 4.6 8.5 6.3zm.9 7.4c.3 1.2.6 2.4.9 3.5l-9.8 1.2c-.9-3.1-1.3-6.3-1.4-9.5l10.3 4.8zm1.4 5c.5 1.4 1.1 2.8 1.7 4.1l-7.8 5.3c-1.3-2.1-2.4-4.3-3.3-6.6-.2-.6-.4-1.1-.6-1.7.2 0 10-1.1 10-1.1zm2.4 5.4c.9 1.7 2 3.4 3.2 5l-5.6 6.3c-1.9-1.8-3.7-3.9-5.2-6.1l7.6-5.2zm4.1 6.2c.9 1.1 1.8 2.2 2.8 3.3.5.5 1 1 1.5 1.4l-4.1 5.5c-2-1.2-3.9-2.6-5.7-4.1l5.5-6.1zm54 10.3c11.9-2.9 21.7-11.3 26.5-22.4-2.2 7.1-6.6 13.4-9.3 16.5-3.9 4.3-8.7 7.7-14.2 9.8l-3-3.9zm26-16.8c.5-1 .9-2.1 1.3-3.1h12l-6.3 7.3h-3.4v1.5h2.2l-2.1 2.5H115c1.7-2.6 3.4-5.4 4.7-8.2zm-12.4 28.9L121 119h6.3l-18.2 18.3-1.8-2.4zm15-17.4l1.6-1.9h6.8l-1.9 1.9h-6.5zm2.9-3.3l2.1-2.5h7.3l-2.5 2.5h-6.9zm3.4-4l7.6-8.8h-14.7c1.4-4.2 1.9-8.2 1.6-11.8 0-.2.1-.4.1-.7.1-.8.1-1.6.1-2.4l49.1-50-42.9 58h22.2l-15.6 15.6-7.5.1zM97.7 128c5.5-2.2 10.4-5.6 14.3-10.1.6-.7 1.3-1.5 1.8-2.3h8.1l-1.6 1.9h-3.2v1.5h1.9l-12.6 14.7-1.5-2-1.2.9 1.7 2.3-1.3 1.5-6.4-8.4z" data-color="2" class="icon2"></path><path d="M92.7 72.9h.2c2.7 0 4.8-2.2 4.8-4.8v-.2c0-2.7-2.2-4.8-4.8-4.8h-.2c-2.7 0-4.8 2.2-4.8 4.8v.2c0 2.7 2.2 4.8 4.8 4.8zm-3.3-5c0-1.8 1.5-3.3 3.3-3.3h.2c1.8 0 3.3 1.5 3.3 3.3v.2c0 1.8-1.5 3.3-3.3 3.3h-.2c-1.8 0-3.3-1.5-3.3-3.3v-.2z" data-color="2" class="icon2"></path><path d="M83 44v.3c0 .8.6 2 5.4 2.8 3.1.6 7.3.9 11.7.9 4.4 0 8.5-.3 11.7-.9 4.8-.9 5.4-2 5.4-2.8V44c.8-.6 1.2-1.3 1.2-2 0-.9-.6-1.7-1.7-2.4l-5.3-9.8-4.1 6.9c-.6-.1-1.3-.2-2-.2l-3.3-11c1.5-.6 2.1-2.3 1.5-3.8-.6-1.5-2.3-2.1-3.8-1.5-1 .5-1.7 1.5-1.7 2.6s.7 2.1 1.6 2.6l-3.6 11c-.7.1-1.4.1-2.1.2l-3.7-6.7-5.3 8.9c-1.9.9-3 2-3 3.1-.1.8.3 1.5 1.1 2.1zm16.3-21.1c0-.8.7-1.4 1.4-1.3.7 0 1.3.6 1.3 1.3 0 .8-.7 1.4-1.4 1.3-.7 0-1.3-.6-1.3-1.3zm4.2 13.5c-1.2-.1-2.3-.1-3.5-.1-.9 0-1.7 0-2.6.1l3.2-9.7 2.9 9.7zm13.3 5.6c0 .2-.2.6-.9 1.1-3.6-1.7-9.4-2.7-15.9-2.7s-12.3 1-15.9 2.7c-.7-.5-.9-.9-.9-1.1 0-.5 1.2-1.6 4.3-2.6 3.3-1 7.7-1.6 12.5-1.6s9.2.6 12.5 1.6c3.1.9 4.3 2.1 4.3 2.6zm-32.2 2.5c1.3-.7 3.1-1.2 5.2-1.7 2.6-.4 6-.7 10.2-.7 4.2 0 7.7.3 10.2.7 2.1.4 3.9 1 5.2 1.7-1 .8-6.4 2.1-15.4 2.1s-14.4-1.3-15.4-2.1zm24-7.5l2.5-4.2 3.1 5.6c-1.5-.6-3.4-1.1-5.6-1.4zM87 38l3-5.1 2.1 3.9c-1.9.3-3.6.7-5.1 1.2z" data-color="2" class="icon2"></path><path d="M107.4 32.2c1.6 0 2.9-1.3 2.9-2.9 0-1.6-1.3-2.9-2.9-2.9-1.6 0-2.9 1.3-2.9 2.9 0 1.6 1.3 2.9 2.9 2.9zm0-4.3c.8 0 1.4.7 1.3 1.4 0 .7-.6 1.3-1.3 1.3-.8 0-1.4-.7-1.3-1.4 0-.7.6-1.3 1.3-1.3z" data-color="2" class="icon2"></path><path d="M94.1 32.2c1.6 0 2.9-1.3 2.9-2.9 0-1.6-1.3-2.9-2.9-2.9-1.6 0-2.9 1.3-2.9 2.9.1 1.6 1.3 2.9 2.9 2.9zm0-4.3c.8 0 1.4.7 1.3 1.4 0 .7-.6 1.3-1.3 1.3-.8 0-1.4-.7-1.3-1.4 0-.7.6-1.3 1.3-1.3z" data-color="2" class="icon2"></path></g></g>
</svg>
</g></svg></svg>