<svg version="1.1" preserveAspectRatio="none" xmlns="http://www.w3.org/2000/svg" width="500" height="500" viewBox="0 0 500 500"><rect width="100%" height="100%" fill="#F5F5F5" fill-opacity="1"/><svg viewBox="59.1651 -83.6591 382.4925 385.5515" width="330.3579482896578" height="333" x="84.821px" y="83.5px" xmlns="http://www.w3.org/2000/svg" xmlns:xlink="http://www.w3.org/1999/xlink" preserveAspectRatio="none"><defs></defs><style>.companyName {fill:#F7BFB2;fill-opacity:1;}.icon1 {fill:#FDC8BC;fill-opacity:1;}.icon2 {fill:#D2BB7A;fill-opacity:1;}.icon3 {fill:#8F8F8F;fill-opacity:1;}.icon3-str {stroke:#8F8F8F;stroke-opacity:1;}.text {fill:#777777;fill-opacity:1;}</style><g opacity="1" transform="rotate(0 195.5816 285.6924)">
<svg width="109.6596" height="16.2" x="195.5816" y="285.6924" version="1.1" preserveAspectRatio="none" viewBox="0 -29.04 198.72 29.36">
  <g transform="matrix(1 0 0 1 0 0)" class="text"><path id="id-6izo4zJp7" d="M47.96-29.04L48-29.04L48 0L46.08 0L46.08-23.32L34.40-6.88L34.32-6.88L22.72-23.12L22.72 0L20.80 0L20.80-29.04L20.84-29.04L34.36-9.80L47.96-29.04Z M61.04-28.40L78.56-28.40L78.56-26.52L63-26.52L63-15.24L77-15.24L77-13.36L63-13.36L63-1.88L79.12-1.88L79.12 0L61.04 0L61.04-28.40Z M112.04-2Q110.60-1.04 108.10-0.36Q105.60 0.32 103.44 0.32L103.44 0.32Q99.08 0.32 95.76-1.56Q92.44-3.44 90.62-6.68Q88.80-9.92 88.80-13.92L88.80-13.92Q88.80-18.16 90.76-21.54Q92.72-24.92 96.04-26.82Q99.36-28.72 103.32-28.72L103.32-28.72Q107.60-28.72 111.12-26.64L111.12-26.64L110.40-24.88Q108.96-25.72 107.12-26.24Q105.28-26.76 103.52-26.76L103.52-26.76Q99.96-26.76 97.04-25.10Q94.12-23.44 92.46-20.54Q90.80-17.64 90.80-14.04L90.80-14.04Q90.80-10.52 92.38-7.68Q93.96-4.84 96.82-3.22Q99.68-1.60 103.40-1.60L103.40-1.60Q105.12-1.60 106.96-2.02Q108.80-2.44 110.08-3.16L110.08-3.16L110.08-11.04L103.68-11.04L103.68-12.92L112.04-12.92L112.04-2Z M126.04-9.60Q126.04-7.16 127.04-5.34Q128.04-3.52 129.82-2.54Q131.60-1.56 133.84-1.56L133.84-1.56Q136.12-1.56 137.90-2.54Q139.68-3.52 140.70-5.34Q141.72-7.16 141.72-9.60L141.72-9.60L141.72-28.40L143.64-28.40L143.64-9.48Q143.64-6.44 142.36-4.24Q141.08-2.04 138.86-0.86Q136.64 0.32 133.84 0.32L133.84 0.32Q131.08 0.32 128.86-0.86Q126.64-2.04 125.36-4.24Q124.08-6.44 124.08-9.48L124.08-9.48L124.08-28.40L126.04-28.40L126.04-9.60Z M183.68-29.04L183.72-29.04L183.72 0L181.80 0L181.80-23.32L170.12-6.88L170.04-6.88L158.44-23.12L158.44 0L156.52 0L156.52-29.04L156.56-29.04L170.08-9.80L183.68-29.04Z M196.76-28.40L198.72-28.40L198.72 0L196.76 0L196.76-28.40Z"/></g>
</svg>
</g><g opacity="1" transform="rotate(0 59.1651 231.6924)">
<svg width="382.4925" height="36" x="59.1651" y="231.6924" version="1.1" preserveAspectRatio="none" viewBox="1.48 -29.44 327.24 30.8">
  <g transform="matrix(1 0 0 1 0 0)" class="companyName"><path id="id-D6z1nYkh12" d="M39.08-28.96L27.72 1.28L20.84-16.08L13.12 1.36L1.48-28.96L6.92-28.96L13.72-9.52L18.56-21.92L15.76-28.96L20.36-28.96L27.84-10.08L34.08-28.96L39.08-28.96Z M40.52-14.52Q40.52-18.52 42.52-21.94Q44.52-25.36 47.94-27.40Q51.36-29.44 55.40-29.44L55.40-29.44Q59.40-29.44 62.82-27.40Q66.24-25.36 68.28-21.92Q70.32-18.48 70.32-14.52L70.32-14.52Q70.32-10.48 68.30-7.08Q66.28-3.68 62.84-1.68Q59.40 0.32 55.40 0.32L55.40 0.32Q51.36 0.32 47.94-1.66Q44.52-3.64 42.52-7.04Q40.52-10.44 40.52-14.52L40.52-14.52ZM45.32-14.52Q45.32-11.68 46.68-9.32Q48.04-6.96 50.38-5.56Q52.72-4.16 55.52-4.16L55.52-4.16Q58.28-4.16 60.56-5.54Q62.84-6.92 64.18-9.30Q65.52-11.68 65.52-14.52L65.52-14.52Q65.52-17.36 64.16-19.76Q62.80-22.16 60.48-23.56Q58.16-24.96 55.40-24.96L55.40-24.96Q52.60-24.96 50.30-23.56Q48-22.16 46.66-19.76Q45.32-17.36 45.32-14.52L45.32-14.52Z M97.84 0L92.44 0L85.88-10.12L85.40-10.12L81.20-10.12L81.20 0L76.52 0L76.52-29.12L84.72-29.12Q89.60-29.12 92.54-26.64Q95.48-24.16 95.48-19.76L95.48-19.76Q95.48-17.08 94.34-14.78Q93.20-12.48 90.76-11.24L90.76-11.24L97.84 0ZM81.20-24.64L81.20-14.60L85.36-14.60Q88.16-14.60 89.42-16.14Q90.68-17.68 90.68-19.60L90.68-19.60Q90.68-20.72 90.20-21.86Q89.72-23 88.56-23.82Q87.40-24.64 85.52-24.64L85.52-24.64L81.20-24.64Z M103.32-29.12L108-29.12L108-4.48L122.36-4.48L122.36 0L103.32 0L103.32-29.12Z M128.52 0L128.52-29.12L136.80-29.12Q142.28-29.12 145.86-26.96Q149.44-24.80 151.08-21.40Q152.72-18 152.72-14.16L152.72-14.16Q152.72-9.92 150.74-6.70Q148.76-3.48 145.44-1.74Q142.12 0 138.20 0L138.20 0L128.52 0ZM133.20-4.48L137.36-4.48Q140.48-4.48 142.86-5.64Q145.24-6.80 146.58-9.06Q147.92-11.32 147.92-14.48L147.92-14.48Q147.92-17.92 146.46-20.22Q145-22.52 142.74-23.60Q140.48-24.68 138.08-24.68L138.08-24.68L133.20-24.68L133.20-4.48Z M187.04-23.20Q183.28-25.16 180.36-25.16L180.36-25.16Q178.20-25.16 176.94-24.20Q175.68-23.24 175.68-21.56L175.68-21.56Q175.68-19.92 177.26-18.82Q178.84-17.72 181.68-16.64L181.68-16.64Q183.84-15.88 185.38-14.90Q186.92-13.92 187.92-12.24Q188.92-10.56 188.92-8L188.92-8Q188.92-5.68 187.76-3.80Q186.60-1.92 184.40-0.80Q182.20 0.32 179.20 0.32L179.20 0.32Q176.56 0.32 174.00-0.50Q171.44-1.32 169.44-2.76L169.44-2.76L171.52-6.40Q173.00-5.28 175.02-4.54Q177.04-3.80 178.76-3.80L178.76-3.80Q180.88-3.80 182.48-4.82Q184.08-5.84 184.08-7.96L184.08-7.96Q184.08-9.64 182.74-10.76Q181.40-11.88 179.00-12.80L179.00-12.80Q176.52-13.72 174.88-14.62Q173.24-15.52 172.06-17.14Q170.88-18.76 170.88-21.20L170.88-21.20Q170.88-24.76 173.30-26.94Q175.72-29.12 179.68-29.28L179.68-29.28Q182.56-29.28 184.74-28.62Q186.92-27.96 188.80-26.76L188.80-26.76L187.04-23.20Z M230.12-28.96L218.76 1.28L211.88-16.08L204.16 1.36L192.52-28.96L197.96-28.96L204.76-9.52L209.60-21.92L206.80-28.96L211.40-28.96L218.88-10.08L225.12-28.96L230.12-28.96Z M235.60-29.12L254.92-29.12L254.92-24.64L240.28-24.64L240.28-16.88L253.32-16.88L253.32-12.40L240.28-12.40L240.28-4.48L255.48-4.48L255.48 0L235.60 0L235.60-29.12Z M261.92-29.12L281.24-29.12L281.24-24.64L266.60-24.64L266.60-16.88L279.64-16.88L279.64-12.40L266.60-12.40L266.60-4.48L281.80-4.48L281.80 0L261.92 0L261.92-29.12Z M286.16-29.12L305.64-29.12L305.64-24.64L298.12-24.64L298.12 0L293.48 0L293.48-24.64L286.16-24.64L286.16-29.12Z M326.84-23.20Q323.08-25.16 320.16-25.16L320.16-25.16Q318-25.16 316.74-24.20Q315.48-23.24 315.48-21.56L315.48-21.56Q315.48-19.92 317.06-18.82Q318.64-17.72 321.48-16.64L321.48-16.64Q323.64-15.88 325.18-14.90Q326.72-13.92 327.72-12.24Q328.72-10.56 328.72-8L328.72-8Q328.72-5.68 327.56-3.80Q326.40-1.92 324.20-0.80Q322 0.32 319 0.32L319 0.32Q316.36 0.32 313.80-0.50Q311.24-1.32 309.24-2.76L309.24-2.76L311.32-6.40Q312.80-5.28 314.82-4.54Q316.84-3.80 318.56-3.80L318.56-3.80Q320.68-3.80 322.28-4.82Q323.88-5.84 323.88-7.96L323.88-7.96Q323.88-9.64 322.54-10.76Q321.20-11.88 318.80-12.80L318.80-12.80Q316.32-13.72 314.68-14.62Q313.04-15.52 311.86-17.14Q310.68-18.76 310.68-21.20L310.68-21.20Q310.68-24.76 313.10-26.94Q315.52-29.12 319.48-29.28L319.48-29.28Q322.36-29.28 324.54-28.62Q326.72-27.96 328.60-26.76L328.60-26.76L326.84-23.20Z"/></g>
</svg>
</g><g opacity="1" transform="rotate(0 154.7882 -83.6591)">
<svg width="191.2463" height="285.3515" x="154.7882" y="-83.6591" version="1.1" preserveAspectRatio="none" viewBox="66 53.5 63 94">
  <g transform="matrix(1 0 0 1 0 0)"><g><path d="M129 82.49v58.01l-13.293-7.723V90.228L92.293 76.625v42.608L79 111.51V53.5l.076.044V53.5l36.632 21.282v-.015L129 82.49z" data-color="1" class="icon1"></path><path d="M116 89.49v58.01l-13.293-7.723V97.228L79.293 83.625v42.608L66 118.51V60.5l.076.044V60.5l36.632 21.282v-.015L116 89.49z" data-color="2" class="icon2"></path></g></g>
</svg>
</g></svg></svg>